<svg width="78" height="1450" viewBox="0 0 78 1450" fill="none" xmlns="http://www.w3.org/2000/svg">
    <line x1="39.0405" y1="1041" x2="39.0405" y2="1073.49" stroke="#D3C3A1" stroke-width="4"/>
    <line x1="39.0405" y1="1381.51" x2="39.0405" y2="1414" stroke="#D3C3A1" stroke-width="4"/>
    <circle cx="38.3396" cy="1096.89" r="6.49826" fill="#D3C3A1"/>
    <circle cx="38.3396" cy="1360.71" r="6.49826" fill="#D3C3A1"/>
    <circle cx="38.3398" cy="1138.47" r="12.9965" fill="#D3C3A1"/>
    <circle cx="38.3398" cy="1319.13" r="12.9965" fill="#D3C3A1"/>
    <path fill-rule="evenodd" clip-rule="evenodd"
          d="M38.9896 1176.16C38.9896 1191.76 17.5453 1222.3 0 1222.3C20.1446 1232.05 38.9896 1256.09 38.9896 1286.63C38.9896 1256.09 57.8345 1232.05 77.9791 1222.3C60.4338 1222.3 38.9896 1191.76 38.9896 1176.16ZM19.4948 1223.23C28.2674 1223.23 38.9896 1206.7 38.9896 1198.26C38.9896 1206.7 49.7117 1223.23 58.4843 1223.23C48.412 1228.5 38.9896 1245.41 38.9896 1261.94C38.9896 1245.41 29.5671 1228.5 19.4948 1223.23Z"
          fill="#D3C3A1"/>
    <path d="M39.952 348.334C7.14943 329.069 -0.140589 187.965 75.8788 148.394C63.7994 155.891 48.2825 184.841 45.6791 198.379C68.0683 185.362 66.5063 199.555 64.9442 199.941C32.8704 207.855 29.191 250.794 32.6622 270.753C39.7434 256.591 55.0513 250.967 65.9856 250.967C82.6473 250.967 83.6887 277.247 58.1754 270.753C31.6281 263.996 32.5263 324.904 47.2412 337.921C53.7157 343.648 46.1579 351.979 39.952 348.334Z"
          fill="#D3C3A1"/>
    <path d="M50.8856 55.7126C55.0512 46.3404 49.8444 16.6617 40.9929 0C68.0682 15.6204 65.9855 96.3256 40.4721 153.08C43.5962 93.2015 27.2749 67.5754 16.5209 45.2991C9.23142 30.1994 32.1412 15.308 50.8856 55.7126Z"
          fill="#D3C3A1"/>
    <path d="M13.3969 101.532C30.5794 103.39 41.5134 144.228 31.6206 186.403C29.1214 149.747 17.3888 133.294 5.58669 124.442C-5.52119 116.111 1.42134 100.238 13.3969 101.532Z"
          fill="#D3C3A1"/>
    <path d="M69.63 429.56C69.63 398.319 26.4137 364.996 23.8103 344.169C16.0001 369.161 55.051 396.757 52.9683 424.874C51.3375 433.844 47.4858 435.288 40.9927 435.288C34.2239 435.288 30.5791 432.163 30.5791 427.998C30.5791 423.833 32.1412 423.833 32.1412 421.229C32.1412 418.626 30.5791 417.584 27.9757 417.584C19.0631 417.584 16.0001 442.056 33.7032 449.867C12.876 445.18 18.6036 458.355 23.8103 459.759C60.8826 469.756 69.63 444.66 69.63 429.56Z"
          fill="#D3C3A1"/>
    <circle cx="16.0004" cy="407.692" r="7.28951" fill="#D3C3A1"/>
    <path d="M39.952 660.064C7.14943 679.329 -0.140589 820.433 75.8788 860.005C63.7994 852.507 48.2825 823.557 45.6791 810.02C68.0683 823.037 66.5063 808.843 64.9442 808.458C32.8704 800.543 29.191 757.605 32.6622 737.645C39.7434 751.808 55.0513 757.431 65.9856 757.431C82.6473 757.431 83.6887 731.151 58.1754 737.645C31.6281 744.403 32.5263 683.495 47.2412 670.478C53.7157 664.75 46.1579 656.419 39.952 660.064Z"
          fill="#D3C3A1"/>
    <path d="M50.8856 952.686C55.0512 962.058 49.8444 991.737 40.9929 1008.4C68.0682 992.778 65.9855 912.073 40.4721 855.319C43.5962 915.197 27.2749 940.823 16.5209 963.099C9.23142 978.199 32.1412 993.09 50.8856 952.686Z"
          fill="#D3C3A1"/>
    <path d="M13.3969 906.866C30.5794 905.008 41.5134 864.17 31.6206 821.995C29.1214 858.651 17.3888 875.105 5.58669 883.956C-5.52119 892.287 1.42134 908.161 13.3969 906.866Z"
          fill="#D3C3A1"/>
    <path d="M69.63 578.838C69.63 610.079 26.4137 643.403 23.8103 664.23C16.0001 639.237 55.051 611.641 52.9683 583.525C51.3375 574.555 47.4858 573.111 40.9927 573.111C34.2239 573.111 30.5791 576.235 30.5791 580.4C30.5791 584.566 32.1412 584.566 32.1412 587.169C32.1412 589.773 30.5791 590.814 27.9757 590.814C19.0631 590.814 16.0001 566.342 33.7032 558.532C12.876 563.218 18.6036 550.043 23.8103 548.639C60.8826 538.642 69.63 563.739 69.63 578.838Z"
          fill="#D3C3A1"/>
    <circle cx="7.28951" cy="7.28951" r="7.28951" transform="matrix(1 0 0 -1 8.71094 607.996)" fill="#D3C3A1"/>
    <path d="M42.9985 504.351C34.7059 494.239 8.99854 490.599 8.99854 504.351C8.99854 518.102 34.7059 514.462 42.9985 504.351Z"
          fill="#D3C3A1"/>
</svg>
