<svg width="24" height="24" viewBox="0 0 24 24" fill="none" xmlns="http://www.w3.org/2000/svg">
<rect x="12" y="2.80761" width="3" height="3" transform="rotate(45 12 2.80761)" fill="#C8C8C8" stroke="white"/>
<rect x="8.46447" y="6.34315" width="3" height="3" transform="rotate(45 8.46447 6.34315)" fill="#C8C8C8" stroke="white"/>
<rect x="4.92893" y="9.87868" width="3" height="3" transform="rotate(45 4.92893 9.87868)" fill="#C8C8C8" stroke="white"/>
<rect x="15.5355" y="6.34315" width="3" height="3" transform="rotate(45 15.5355 6.34315)" fill="#C8C8C8" stroke="white"/>
<rect x="12" y="9.87868" width="3" height="3" transform="rotate(45 12 9.87868)" fill="#C8C8C8" stroke="white"/>
<rect x="8.46447" y="13.4142" width="3" height="3" transform="rotate(45 8.46447 13.4142)" fill="#C8C8C8" stroke="white"/>
<rect x="19.0711" y="9.87868" width="3" height="3" transform="rotate(45 19.0711 9.87868)" fill="#C8C8C8" stroke="white"/>
<rect x="15.5355" y="13.4142" width="3" height="3" transform="rotate(45 15.5355 13.4142)" fill="#C8C8C8" stroke="white"/>
<rect x="12" y="16.9497" width="3" height="3" transform="rotate(45 12 16.9497)" fill="#C8C8C8" stroke="white"/>
</svg>
